<svg width="35" height="35" viewBox="0 0 24 25" preserveAspectRatio="none" fill="none" xmlns="http://www.w3.org/2000/svg">
<path fill-rule="evenodd" clip-rule="evenodd" d="M21 8.5H6V10.5H5C3.34315 10.5 2 12.3431 2 14C2 15.6569 3.34315 17.5 5 17.5H8.40093C9.73907 18.7412 11.5309 19.5 13.5 19.5C17.6421 19.5 21 16.1421 21 12V8.5ZM6.86505 15.5C6.38614 14.594 6.08736 13.5781 6.0164 12.5H5C4.44772 12.5 4 13.4477 4 14C4 14.5523 4.44772 15.5 5 15.5H6.86505Z" fill="black"/>
<rect opacity="0.3" x="6" y="21.5" width="15" height="2" rx="1" fill="black"/>
<path opacity="0.3" d="M8.11576 0.5L9.27323 1.65267C8.41777 2.51168 8.42065 3.90153 9.27966 4.75698C9.35322 4.83024 9.43189 4.89818 9.51506 4.96031L10 5.3225L9.0225 6.63127L8.53756 6.26907C8.39249 6.16072 8.25529 6.04222 8.12699 5.91445C6.62873 4.42239 6.62371 1.99826 8.11576 0.5Z" fill="black"/>
<path opacity="0.3" d="M13.1158 1.5L14.2732 2.65267C13.4178 3.51168 13.4207 4.90153 14.2797 5.75698C14.3532 5.83024 14.4319 5.89818 14.5151 5.96031L15 6.3225L14.0225 7.63127L13.5376 7.26907C13.3925 7.16072 13.2553 7.04222 13.127 6.91445C11.6287 5.42239 11.6237 2.99826 13.1158 1.5Z" fill="black"/>
<path opacity="0.3" d="M18.1158 0.5L19.2732 1.65267C18.4178 2.51168 18.4207 3.90153 19.2797 4.75698C19.3532 4.83024 19.4319 4.89818 19.5151 4.96031L20 5.3225L19.0225 6.63127L18.5376 6.26907C18.3925 6.16072 18.2553 6.04222 18.127 5.91445C16.6287 4.42239 16.6237 1.99826 18.1158 0.5Z" fill="black"/>
</svg>
