<svg width="24" height="25" viewBox="0 0 24 25" fill="none" xmlns="http://www.w3.org/2000/svg">
<path opacity="0.3" fill-rule="evenodd" clip-rule="evenodd" d="M13 16H11V21.5H10C8.89543 21.5 8 22.3954 8 23.5H16C16 22.3954 15.1046 21.5 14 21.5H13V16Z" fill="white"/>
<path fill-rule="evenodd" clip-rule="evenodd" d="M15.714 2.5H8.28595C7.05294 2.5 6.02781 3.4284 5.93324 4.6307L5.45844 10.6671C5.44571 10.8291 5.43933 10.9914 5.43933 11.1538C5.43933 14.6587 8.34458 17.5 11.9284 17.5H12.0716C12.2376 17.5 12.4037 17.4938 12.5693 17.4813C16.1425 17.2125 18.8164 14.1617 18.5415 10.6671L18.0667 4.6307C17.9722 3.4284 16.947 2.5 15.714 2.5ZM7.50001 8.5L8.00001 4.5H16C16 4.5 16.4063 7.30922 16.5 8.5H7.50001Z" fill="white"/>
</svg>
