<svg width="29" height="27" viewBox="0 0 29 27" fill="none" xmlns="http://www.w3.org/2000/svg">
<path opacity="0.3" d="M16.9178 7.875C16.9178 8.49632 17.4585 9 18.1256 9C18.7927 9 19.3334 8.49632 19.3334 7.875V6.75C19.3334 4.26472 17.1704 2.25 14.5022 2.25H7.25637C4.58815 2.25 2.42513 4.26472 2.42513 6.75V20.25C2.42513 22.7353 4.58815 24.75 7.25637 24.75H14.5106C17.1788 24.75 19.3418 22.7353 19.3418 20.25V19.125C19.3418 18.5037 18.801 18 18.134 18C17.4669 18 16.9262 18.5037 16.9262 19.125V20.25C16.9262 21.4926 15.8447 22.5 14.5106 22.5H7.25637C5.92226 22.5 4.84075 21.4926 4.84075 20.25L4.84075 6.75C4.84075 5.50736 5.92226 4.5 7.25637 4.5H14.5022C15.8363 4.5 16.9178 5.50736 16.9178 6.75V7.875Z" fill="black"/>
<rect opacity="0.3" x="24.1667" y="12.375" width="2.25" height="14.5" rx="1" transform="rotate(90 24.1667 12.375)" fill="black"/>
<path d="M20.8957 10.9205C20.4238 10.4812 20.4238 9.76884 20.8957 9.32951C21.3675 8.89017 22.1326 8.89017 22.6045 9.32951L26.2295 12.7045C26.7014 13.1438 26.7014 13.8562 26.2295 14.2955L22.6045 17.6705C22.1326 18.1098 21.3675 18.1098 20.8957 17.6705C20.4238 17.2312 20.4238 16.5188 20.8957 16.0795L23.6662 13.5L20.8957 10.9205Z" fill="black"/>
</svg>
