<svg width="30" height="30" viewBox="0 0 24 24" fill="none" xmlns="http://www.w3.org/2000/svg">
<path d="M21.7269 4.99888C22.3043 5.57628 22.3137 6.50949 21.7482 7.09848L12.8988 16.3141C12.6235 16.6008 12.2457 16.7665 11.8484 16.7748L8.12508 16.8529L8.20352 13.1144C8.21167 12.7261 8.37013 12.3561 8.64557 12.0822L17.6961 3.08336C18.2824 2.50044 19.2298 2.50179 19.8144 3.08639L21.7269 4.99888Z" fill="black"/>
<path opacity="0.3" d="M12.9 2C13.4523 2 13.9 2.44772 13.9 3C13.9 3.55228 13.4523 4 12.9 4H6C4.89543 4 4 4.89543 4 6V18C4 19.1046 4.89543 20 6 20H18C19.1046 20 20 19.1046 20 18V13C20 12.4477 20.4477 12 21 12C21.5523 12 22 12.4477 22 13V18C22 20.2091 20.2091 22 18 22H6C3.79086 22 2 20.2091 2 18V6C2 3.79086 3.79086 2 6 2H12.9Z" fill="black"/>
</svg>
